<svg width="11" height="19" viewBox="0 0 11 19" fill="none" xmlns="http://www.w3.org/2000/svg">
<path fill-rule="evenodd" clip-rule="evenodd" d="M0.260536 8.2883C2.52054 6.0233 8.38053 0.308289 8.38053 0.308289C8.46866 0.214747 8.57471 0.139835 8.6923 0.0879822C8.80989 0.036129 8.9366 0.00839266 9.0651 0.00640869C9.19361 0.00442473 9.32121 0.0282177 9.44035 0.076416C9.55948 0.124614 9.66773 0.196242 9.75871 0.287018C9.84968 0.377794 9.92155 0.485888 9.97001 0.604919C10.0185 0.723951 10.0426 0.851503 10.0409 0.980011C10.0392 1.10852 10.0117 1.23538 9.96012 1.35309C9.90853 1.4708 9.83386 1.57695 9.74052 1.66528L2.39054 9.0123L9.7205 16.3753C9.8154 16.467 9.89087 16.5768 9.94242 16.6983C9.99397 16.8197 10.0205 16.9503 10.0205 17.0823C10.0205 17.2142 9.99397 17.3448 9.94242 17.4663C9.89087 17.5878 9.8154 17.6976 9.7205 17.7893C9.53313 17.9755 9.27973 18.0801 9.01554 18.0801C8.75136 18.0801 8.49783 17.9755 8.31046 17.7893L0.42057 9.86328C0.29878 9.77614 0.196865 9.66407 0.121742 9.53452C0.0466194 9.40496 -8.52393e-05 9.2609 -0.0152206 9.11191C-0.030356 8.96292 -0.0135619 8.81242 0.0339737 8.67041C0.0815093 8.5284 0.158758 8.39815 0.260536 8.2883V8.2883Z" fill="#111111"/>
</svg>
