<svg xmlns="http://www.w3.org/2000/svg" width="24" height="20" viewBox="0 0 24 20">
  <metadata><?xpacket begin="﻿" id="W5M0MpCehiHzreSzNTczkc9d"?>
<x:xmpmeta xmlns:x="adobe:ns:meta/" x:xmptk="Adobe XMP Core 5.6-c138 79.159824, 2016/09/14-01:09:01        ">
   <rdf:RDF xmlns:rdf="http://www.w3.org/1999/02/22-rdf-syntax-ns#">
      <rdf:Description rdf:about=""/>
   </rdf:RDF>
</x:xmpmeta>
                                                                                                    
                                                                                                    
                                                                                                    
                                                                                                    
                                                                                                    
                                                                                                    
                                                                                                    
                                                                                                    
                                                                                                    
                                                                                                    
                                                                                                    
                                                                                                    
                                                                                                    
                                                                                                    
                                                                                                    
                                                                                                    
                                                                                                    
                                                                                                    
                                                                                                    
                                                                                                    
                           
<?xpacket end="w"?></metadata>
<defs>
    <style>
      .cls-1 {
        fill: #e5e5e5;
        fill-rule: evenodd;
      }
    </style>
  </defs>
  <path class="cls-1" d="M21.9,20H2.1A2.093,2.093,0,0,1,0,17.912V5A2.094,2.094,0,0,1,2.1,2.911H6.19l2.1-2.548A1.018,1.018,0,0,1,9.07,0h5.86a1.018,1.018,0,0,1,.78.363l2.1,2.548H21.9A2.094,2.094,0,0,1,24,5V17.912A2.093,2.093,0,0,1,21.9,20ZM22,5a0.1,0.1,0,0,0-.1-0.1H17.34a1.017,1.017,0,0,1-.78-0.364l-2.1-2.547H9.54L7.44,4.532a1.017,1.017,0,0,1-.78.364H2.1A0.1,0.1,0,0,0,2,5V17.912a0.1,0.1,0,0,0,.1.1H21.9a0.1,0.1,0,0,0,.1-0.1V5h0ZM12,16a5.006,5.006,0,1,1,5-5.012V10.99A5.007,5.007,0,0,1,12,16Zm0-8.007a3,3,0,1,0,3,3A3,3,0,0,0,12,7.989Z"/>
</svg>
