<svg xmlns="http://www.w3.org/2000/svg" width="14" height="14" viewBox="0 0 14 14">
  <metadata><?xpacket begin="﻿" id="W5M0MpCehiHzreSzNTczkc9d"?>
<x:xmpmeta xmlns:x="adobe:ns:meta/" x:xmptk="Adobe XMP Core 5.6-c138 79.159824, 2016/09/14-01:09:01        ">
   <rdf:RDF xmlns:rdf="http://www.w3.org/1999/02/22-rdf-syntax-ns#">
      <rdf:Description rdf:about=""/>
   </rdf:RDF>
</x:xmpmeta>
                                                                                                    
                                                                                                    
                                                                                                    
                                                                                                    
                                                                                                    
                                                                                                    
                                                                                                    
                                                                                                    
                                                                                                    
                                                                                                    
                                                                                                    
                                                                                                    
                                                                                                    
                                                                                                    
                                                                                                    
                                                                                                    
                                                                                                    
                                                                                                    
                                                                                                    
                                                                                                    
                           
<?xpacket end="w"?></metadata>
<defs>
    <style>
      .cls-1 {
        fill: #969696;
        fill-rule: evenodd;
      }
    </style>
  </defs>
  <path id="icon" class="cls-1" d="M1853.5,193H1853v11.5a0.5,0.5,0,0,1-.5.5h-11a0.5,0.5,0,0,1-.5-0.5V193h-0.5a0.5,0.5,0,0,1,0-1h2.5v-0.5a0.5,0.5,0,0,1,.5-0.5h7a0.5,0.5,0,0,1,.5.5V192h2.5A0.5,0.5,0,0,1,1853.5,193Zm-1.5,0h-10v11h10V193Zm-6.5,2a0.5,0.5,0,0,1,.5.5v6a0.5,0.5,0,0,1-1,0v-6A0.5,0.5,0,0,1,1845.5,195Zm3,0a0.5,0.5,0,0,1,.5.5v6a0.5,0.5,0,0,1-.5.5H1848v-6.5A0.5,0.5,0,0,1,1848.5,195Z" transform="translate(-1840 -191)"/>
</svg>
