<svg xmlns="http://www.w3.org/2000/svg" width="24" height="20" viewBox="0 0 24 20">
  <metadata><?xpacket begin="﻿" id="W5M0MpCehiHzreSzNTczkc9d"?>
<x:xmpmeta xmlns:x="adobe:ns:meta/" x:xmptk="Adobe XMP Core 5.6-c138 79.159824, 2016/09/14-01:09:01        ">
   <rdf:RDF xmlns:rdf="http://www.w3.org/1999/02/22-rdf-syntax-ns#">
      <rdf:Description rdf:about=""/>
   </rdf:RDF>
</x:xmpmeta>
                                                                                                    
                                                                                                    
                                                                                                    
                                                                                                    
                                                                                                    
                                                                                                    
                                                                                                    
                                                                                                    
                                                                                                    
                                                                                                    
                                                                                                    
                                                                                                    
                                                                                                    
                                                                                                    
                                                                                                    
                                                                                                    
                                                                                                    
                                                                                                    
                                                                                                    
                                                                                                    
                           
<?xpacket end="w"?></metadata>
<defs>
    <style>
      .cls-1 {
        fill: #111;
        fill-rule: evenodd;
      }
    </style>
  </defs>
  <path id="icon_favorite_active" class="cls-1" d="M1806,43.928h0Zm0,0.035v0Zm-11.35,13.824a1.076,1.076,0,0,1-.64.213,1.038,1.038,0,0,1-.64-0.212c-3.64-2.779-9.74-7.429-11.08-12.068a4.566,4.566,0,0,1-.28-2.018A5.782,5.782,0,0,1,1788,38c2.15,0,4,0,6,2.435C1796,38,1797.85,38,1800,38a5.819,5.819,0,0,1,6,5.958,6.683,6.683,0,0,1-.32,1.845C1804.66,48.961,1801.04,52.888,1794.65,57.787Zm4.85-17.952a5.009,5.009,0,0,0-4.57,2.765,1.011,1.011,0,0,1-1.11.593,0.972,0.972,0,0,1-.8-0.7,5.035,5.035,0,0,0-4.52-2.656,4.306,4.306,0,0,0-4.49,4.027c0,0.028-.01.056-0.01,0.083v0.047a3.738,3.738,0,0,0,.21,1.215c1.12,3.869,6.3,8,9.79,10.678,5.62-4.371,8.9-7.945,9.77-10.627a4.75,4.75,0,0,0,.16-0.592,4.372,4.372,0,0,0,.07-0.657V43.951A4.332,4.332,0,0,0,1799.5,39.835Z" transform="translate(-1782 -38)"/>
</svg>
