<svg xmlns="http://www.w3.org/2000/svg" width="24" height="20" viewBox="0 0 24 20">
  <metadata><?xpacket begin="﻿" id="W5M0MpCehiHzreSzNTczkc9d"?>
<x:xmpmeta xmlns:x="adobe:ns:meta/" x:xmptk="Adobe XMP Core 5.6-c138 79.159824, 2016/09/14-01:09:01        ">
   <rdf:RDF xmlns:rdf="http://www.w3.org/1999/02/22-rdf-syntax-ns#">
      <rdf:Description rdf:about=""/>
   </rdf:RDF>
</x:xmpmeta>
                                                                                                    
                                                                                                    
                                                                                                    
                                                                                                    
                                                                                                    
                                                                                                    
                                                                                                    
                                                                                                    
                                                                                                    
                                                                                                    
                                                                                                    
                                                                                                    
                                                                                                    
                                                                                                    
                                                                                                    
                                                                                                    
                                                                                                    
                                                                                                    
                                                                                                    
                                                                                                    
                           
<?xpacket end="w"?></metadata>
<defs>
    <style>
      .cls-1 {
        fill: #111;
        fill-rule: evenodd;
      }
    </style>
  </defs>
  <path id="icon_photo" class="cls-1" d="M1749.9,58h-19.8a2.093,2.093,0,0,1-2.1-2.084V43a2.094,2.094,0,0,1,2.1-2.085h4.09l2.1-2.548a1.018,1.018,0,0,1,.78-0.363h5.86a1.018,1.018,0,0,1,.78.363l2.1,2.548h4.09A2.094,2.094,0,0,1,1752,43V55.916A2.093,2.093,0,0,1,1749.9,58Zm0.1-15a0.1,0.1,0,0,0-.1-0.1h-4.56a1.017,1.017,0,0,1-.78-0.364l-2.1-2.547h-4.92l-2.1,2.547a1.017,1.017,0,0,1-.78.364h-4.56a0.1,0.1,0,0,0-.1.1V55.916a0.1,0.1,0,0,0,.1.1h19.8a0.1,0.1,0,0,0,.1-0.1V43Zm-10,11a5.006,5.006,0,1,1,5-5.006A5.007,5.007,0,0,1,1740,54Zm0-8.007a3,3,0,1,0,3,3A3.008,3.008,0,0,0,1740,45.993Z" transform="translate(-1728 -38)"/>
</svg>
