<svg xmlns="http://www.w3.org/2000/svg" width="24" height="20" viewBox="0 0 24 20">
  <metadata><?xpacket begin="﻿" id="W5M0MpCehiHzreSzNTczkc9d"?>
<x:xmpmeta xmlns:x="adobe:ns:meta/" x:xmptk="Adobe XMP Core 5.6-c138 79.159824, 2016/09/14-01:09:01        ">
   <rdf:RDF xmlns:rdf="http://www.w3.org/1999/02/22-rdf-syntax-ns#">
      <rdf:Description rdf:about=""/>
   </rdf:RDF>
</x:xmpmeta>
                                                                                                    
                                                                                                    
                                                                                                    
                                                                                                    
                                                                                                    
                                                                                                    
                                                                                                    
                                                                                                    
                                                                                                    
                                                                                                    
                                                                                                    
                                                                                                    
                                                                                                    
                                                                                                    
                                                                                                    
                                                                                                    
                                                                                                    
                                                                                                    
                                                                                                    
                                                                                                    
                           
<?xpacket end="w"?></metadata>
<defs>
    <style>
      .cls-1 {
        fill: #ff5151;
        fill-rule: evenodd;
      }
    </style>
  </defs>
  <path id="icon_favorite_active" class="cls-1" d="M563,2905.93C563,2905.79,563,2905.81,563,2905.93Zm0,0.03h0c0-.01,0-0.02,0-0.03v0.03Zm-11.353,13.83a1.08,1.08,0,0,1-1.28,0c-3.64-2.78-9.734-7.43-11.079-12.07a4.384,4.384,0,0,1-.276-2.02A5.776,5.776,0,0,1,545,2900c2.145,0,4,0,6,2.44,2-2.44,3.852-2.44,6-2.44a5.817,5.817,0,0,1,6,5.96,6.775,6.775,0,0,1-.317,1.84C561.656,2910.96,558.045,2914.89,551.647,2919.79Z" transform="translate(-539 -2900)"/>
</svg>
