<svg width="24" height="20" viewBox="0 0 24 20" fill="none" xmlns="http://www.w3.org/2000/svg">
<g clip-path="url(#clip0)">
<path fill-rule="evenodd" clip-rule="evenodd" d="M12.65 19.7869C12.465 19.9246 12.2406 19.9993 12.01 19.9999C11.779 20.0024 11.5538 19.9278 11.37 19.7879C7.72998 17.0089 1.63002 12.3589 0.29002 7.71986C0.0458918 7.07686 -0.0498533 6.38702 0.00999062 5.70185C0.0201493 4.93148 0.184175 4.17091 0.492413 3.46482C0.80065 2.75873 1.24688 2.12136 1.80491 1.59016C2.36294 1.05896 3.02151 0.644643 3.74192 0.371543C4.46233 0.0984436 5.23004 -0.0279279 5.99998 -0.000145471C8.14998 -0.000145471 9.99998 -0.000144005 12 2.43486C14 -0.000144005 15.85 -0.000145471 18 -0.000145471C18.7911 -0.025 19.5789 0.111794 20.3153 0.40187C21.0517 0.691947 21.7213 1.12921 22.2829 1.6869C22.8446 2.2446 23.2865 2.91101 23.5818 3.64537C23.877 4.37973 24.0193 5.1666 24 5.95785C23.9804 6.58482 23.8728 7.20592 23.68 7.80286C22.66 10.9609 19.04 14.8879 12.65 19.7869V19.7869ZM17.5 1.83485C16.555 1.81762 15.6243 2.06811 14.8157 2.55738C14.007 3.04666 13.3533 3.75475 12.93 4.59985C12.8393 4.80961 12.6801 4.98243 12.4785 5.09012C12.2769 5.19781 12.0447 5.23403 11.8199 5.19286C11.633 5.16646 11.4578 5.08621 11.3158 4.96191C11.1737 4.8376 11.071 4.67461 11.02 4.49285C10.5832 3.67774 9.93024 2.99868 9.13292 2.53016C8.33559 2.06165 7.42465 1.82177 6.49998 1.83686C5.3733 1.78637 4.27183 2.17993 3.43223 2.93295C2.59263 3.68597 2.08193 4.73833 2.00999 5.86385C2.00999 5.89185 1.99998 5.91985 1.99998 5.94685V5.99385C2.00224 6.40769 2.07317 6.81827 2.20994 7.20885C3.32994 11.0779 8.50998 15.2089 12 17.8869C17.62 13.5159 20.9 9.94185 21.77 7.25985C21.836 7.06617 21.8895 6.86843 21.93 6.66785C21.9699 6.45093 21.9933 6.23131 22 6.01086V5.95085C21.9439 4.81013 21.4396 3.73769 20.5969 2.96686C19.7542 2.19603 18.6412 1.78919 17.5 1.83485V1.83485Z" fill="#969696"/>
</g>
<defs>
<clipPath id="clip0">
<rect width="24" height="20" fill="white"/>
</clipPath>
</defs>
</svg>
