<svg xmlns="http://www.w3.org/2000/svg" width="107" height="30" viewBox="0 0 107 30">
<path id="logo" d="M166.082,43.8h0.011L159.511,60.76h0a3.782,3.782,0,0,1-3.339,2.25H154.9V60.674l0.618-.011a2.506,2.506,0,0,0,2.281-1.676l1.008-2.6L153,41.433h2.39L160,53.309l4.608-11.876H167ZM151.118,55.972h-2.413V55.552c0-2.77.023-5.739,0.024-8.509a4.294,4.294,0,0,0-.34-2.026,2.685,2.685,0,0,0-2.072-1.643,3.226,3.226,0,0,0-2.989.666,4.585,4.585,0,0,0-1.637,2.556,10.832,10.832,0,0,0-.218,1.5v7.874c-0.807,0-1.587,0-2.418,0V55.566c0-1.514.007-3.043,0.013-4.629V46.475a3.53,3.53,0,0,0-.329-1.443,2.685,2.685,0,0,0-2.072-1.643,3.224,3.224,0,0,0-2.988.666,4.576,4.576,0,0,0-1.638,2.556,11.308,11.308,0,0,0-.23,1.634l0,7.728h-2.391V41.435h1.987l0.4,2.223c0.076-.122.279-0.4,0.4-0.555a4.577,4.577,0,0,1,3.34-2.06,5.075,5.075,0,0,1,5.426,2.935c0.288-.436.566-0.758,0.635-0.849a5.086,5.086,0,0,1,3.589-2.1,5.156,5.156,0,0,1,5.929,5.167c0,0.365,0,.495,0,0.841h0v8.929h0v0Zm-36.438-6.28c0,4.079,5.158,5.611,7.869,3.843a6.9,6.9,0,0,0,1.384-1.121l1.662,1.315c-0.2.226-.441,0.5-0.61,0.655a7.305,7.305,0,0,1-3.573,1.86,7.561,7.561,0,0,1-5.241-.565A7.4,7.4,0,0,1,112.284,50a7.941,7.941,0,0,1,.674-4.882,6.86,6.86,0,0,1,5.613-4,7.094,7.094,0,0,1,4.2.636l0.009,0a6.6,6.6,0,0,1,3.194,4.073,12.172,12.172,0,0,1,.2,3.864H114.68Zm4.987-6.585a4.685,4.685,0,0,0-3.441,1.435,4.973,4.973,0,0,0-1.5,2.864h9.012C123.821,44.839,122.275,43.237,119.667,43.108ZM106.635,53.391c-0.19.252-.464,0.6-0.625,0.772a6.134,6.134,0,0,1-3.285,2.037,7.079,7.079,0,0,1-5.028-.545,7.406,7.406,0,0,1-3.887-5.674,7.938,7.938,0,0,1,.674-4.882,7.028,7.028,0,0,1,5.613-4,6.82,6.82,0,0,1,4.5.8,8.872,8.872,0,0,1,2.036,1.734V33.014h2.39v23h-1.986Zm-0.41-6.909a5.032,5.032,0,0,0-4.767-3.216,4.54,4.54,0,0,0-3.478,1.3A5.779,5.779,0,0,0,96.368,49.7a4.984,4.984,0,0,0,7.619,3.739,6.152,6.152,0,0,0,2.648-4.715A5.509,5.509,0,0,0,106.225,46.482Zm-15.774,9.5H88.039V55.6c0-2.77.023-5.8,0.024-8.571a4.3,4.3,0,0,0-.341-2.026,2.684,2.684,0,0,0-2.072-1.643,4.479,4.479,0,0,0-3.582.668,4.585,4.585,0,0,0-1.638,2.556,11.273,11.273,0,0,0-.229,1.634l0,7.758H77.808V41.412H79.8l0.4,2.223c0.076-.122.279-0.4,0.395-0.554a5.169,5.169,0,0,1,3.934-2.062,5.474,5.474,0,0,1,3.939,1.029,5.338,5.338,0,0,1,1.99,4.138c0,0.366,0,.495,0,0.84h0V55.98H90.451v0ZM73.785,44.112a1.56,1.56,0,1,1,1.537-1.56A1.548,1.548,0,0,1,73.785,44.112Zm-7.914,11.9H63.486V43.695H60V41.414h3.486V37.5A4.453,4.453,0,0,1,67.9,33.016h0l1.412,0v2.421l-1.407,0A2.05,2.05,0,0,0,65.871,37.5v3.913l3.891,0v2.281l-3.891,0V56.013Z" transform="translate(-60 -33)"/>
</svg>
