<svg xmlns="http://www.w3.org/2000/svg" width="18" height="18" viewBox="0 0 18 18">
  <metadata><?xpacket begin="﻿" id="W5M0MpCehiHzreSzNTczkc9d"?>
<x:xmpmeta xmlns:x="adobe:ns:meta/" x:xmptk="Adobe XMP Core 5.6-c138 79.159824, 2016/09/14-01:09:01        ">
   <rdf:RDF xmlns:rdf="http://www.w3.org/1999/02/22-rdf-syntax-ns#">
      <rdf:Description rdf:about=""/>
   </rdf:RDF>
</x:xmpmeta>
                                                                                                    
                                                                                                    
                                                                                                    
                                                                                                    
                                                                                                    
                                                                                                    
                                                                                                    
                                                                                                    
                                                                                                    
                                                                                                    
                                                                                                    
                                                                                                    
                                                                                                    
                                                                                                    
                                                                                                    
                                                                                                    
                                                                                                    
                                                                                                    
                                                                                                    
                                                                                                    
                           
<?xpacket end="w"?></metadata>
<defs>
    <style>
      .cls-1 {
        fill: #111;
        fill-rule: evenodd;
      }
    </style>
  </defs>
  <path id="bg" class="cls-1" d="M1506,3500h-6a6,6,0,0,1-6-6v-6a6,6,0,0,1,6-6h6a6,6,0,0,1,6,6v6A6,6,0,0,1,1506,3500Zm4-12a4,4,0,0,0-4-4h-6a4,4,0,0,0-4,4v6a4,4,0,0,0,4,4h6a4,4,0,0,0,4-4v-6Zm-2.75-.51a0.745,0.745,0,1,1,.75-0.74A0.738,0.738,0,0,1,1507.25,3487.49Zm-4.25,7.99a4.48,4.48,0,1,1,4.48-4.48A4.473,4.473,0,0,1,1503,3495.48Zm0-7.17a2.69,2.69,0,1,0,2.69,2.69A2.684,2.684,0,0,0,1503,3488.31Z" transform="translate(-1494 -3482)"/>
</svg>
