<svg xmlns="http://www.w3.org/2000/svg" width="11" height="18" viewBox="0 0 11 18">
  <metadata><?xpacket begin="﻿" id="W5M0MpCehiHzreSzNTczkc9d"?>
<x:xmpmeta xmlns:x="adobe:ns:meta/" x:xmptk="Adobe XMP Core 5.6-c138 79.159824, 2016/09/14-01:09:01        ">
   <rdf:RDF xmlns:rdf="http://www.w3.org/1999/02/22-rdf-syntax-ns#">
      <rdf:Description rdf:about=""/>
   </rdf:RDF>
</x:xmpmeta>
                                                                                                    
                                                                                                    
                                                                                                    
                                                                                                    
                                                                                                    
                                                                                                    
                                                                                                    
                                                                                                    
                                                                                                    
                                                                                                    
                                                                                                    
                                                                                                    
                                                                                                    
                                                                                                    
                                                                                                    
                                                                                                    
                                                                                                    
                                                                                                    
                                                                                                    
                                                                                                    
                           
<?xpacket end="w"?></metadata>
<defs>
    <style>
      .cls-1 {
        fill: #111;
        fill-rule: evenodd;
      }
    </style>
  </defs>
  <path id="icon" class="cls-1" d="M1646.2,3493.68a7.192,7.192,0,0,1-3.8-1.33c-0.13-.1-0.28-0.21-0.4-0.32a1.051,1.051,0,0,1-.15-1.51,1.1,1.1,0,0,1,1.44-.32,3.136,3.136,0,0,1,.31.18,6.323,6.323,0,0,0,6.91.07,1.7,1.7,0,0,1,.67-0.34,1.059,1.059,0,0,1,1.21.47,0.989,0.989,0,0,1-.08,1.32,5.486,5.486,0,0,1-2,1.28,9.771,9.771,0,0,1-2.28.5c0.11,0.13.17,0.19,0.24,0.26q1.59,1.56,3.17,3.13a1.026,1.026,0,0,1,.24,1.21,1.27,1.27,0,0,1-1.18.72,1.172,1.172,0,0,1-.74-0.37c-0.79-.79-1.61-1.56-2.39-2.37-0.22-.23-0.33-0.19-0.53.02-0.8.81-1.62,1.61-2.44,2.4a1.029,1.029,0,0,1-1.23.22,1.237,1.237,0,0,1-.72-1.13,1.13,1.13,0,0,1,.39-0.76q1.56-1.53,3.13-3.08C1646.03,3493.86,1646.1,3493.79,1646.2,3493.68Zm0.86-3.57a4.561,4.561,0,1,1,4.67-4.5A4.592,4.592,0,0,1,1647.06,3490.11Zm2.31-4.56a2.271,2.271,0,1,0-2.26,2.23A2.247,2.247,0,0,0,1649.37,3485.55Z" transform="translate(-1641.59 -3481)"/>
</svg>
