<svg xmlns="http://www.w3.org/2000/svg" width="18" height="11.16" viewBox="0 0 18 11.16">
  <metadata><?xpacket begin="﻿" id="W5M0MpCehiHzreSzNTczkc9d"?>
<x:xmpmeta xmlns:x="adobe:ns:meta/" x:xmptk="Adobe XMP Core 5.6-c138 79.159824, 2016/09/14-01:09:01        ">
   <rdf:RDF xmlns:rdf="http://www.w3.org/1999/02/22-rdf-syntax-ns#">
      <rdf:Description rdf:about=""/>
   </rdf:RDF>
</x:xmpmeta>
                                                                                                    
                                                                                                    
                                                                                                    
                                                                                                    
                                                                                                    
                                                                                                    
                                                                                                    
                                                                                                    
                                                                                                    
                                                                                                    
                                                                                                    
                                                                                                    
                                                                                                    
                                                                                                    
                                                                                                    
                                                                                                    
                                                                                                    
                                                                                                    
                                                                                                    
                                                                                                    
                           
<?xpacket end="w"?></metadata>
<defs>
    <style>
      .cls-1 {
        fill: #111;
        fill-rule: evenodd;
      }
    </style>
  </defs>
  <path id="icon" class="cls-1" d="M1550.81,3495.99h1.07a0.871,0.871,0,0,0,.49-0.23,0.854,0.854,0,0,0,.15-0.51s-0.02-1.55.65-1.78,1.51,1.5,2.4,2.16a1.61,1.61,0,0,0,1.2.4l2.4-.04s1.26-.08.66-1.15a8.633,8.633,0,0,0-1.78-2.22c-1.51-1.51-1.31-1.26.51-3.86,1.1-1.59,1.54-2.56,1.4-2.97a0.975,0.975,0,0,0-.94-0.29l-2.7.02a0.6,0.6,0,0,0-.35.06,0.811,0.811,0,0,0-.24.31,17.982,17.982,0,0,1-1,2.28c-1.2,2.2-1.68,2.31-1.88,2.17-0.46-.31-0.35-1.27-0.35-1.96,0-2.13.3-3.02-.58-3.25a4.162,4.162,0,0,0-1.26-.14,5.549,5.549,0,0,0-2.25.25c-0.3.16-.54,0.53-0.4,0.55a1.127,1.127,0,0,1,.8.43,2.928,2.928,0,0,1,.27,1.31s0.16,2.51-.37,2.83c-0.37.21-.87-0.23-1.94-2.22a19.315,19.315,0,0,1-.97-2.16,0.858,0.858,0,0,0-.22-0.32,0.99,0.99,0,0,0-.41-0.18l-2.57.02a0.834,0.834,0,0,0-.53.19,0.62,0.62,0,0,0-.01.49s2.01,5.07,4.29,7.62a5.956,5.956,0,0,0,4.46,2.19h0Z" transform="translate(-1542 -3485)"/>
</svg>
